# xmcd
#
# Track frame offsets:
#	215
#	11100
#	27015
#	41065
#	54897
#	67337
#	81495
#	94675
#	113682
#	130975
#	143137
#	160602
#	170130
#	193905
#	205915
#	217780
#	233112
#	245435
#	256035
#	265767
#
# Disc length: 3698 seconds
#
# Revision: 1
# Processed by: cddbd v1.5.1PL0 Copyright (c) Steve Scherf et al.
# Submitted via: EasyCDDAExtractor 7.1.3.1
#
DISCID=180e7014
DTITLE=Various Artist - 70's country
DYEAR=1989
DGENRE=Country
TTITLE0=Merle Haggard-Today I Started Loving You Again
TTITLE1=Juice Newton-Lay Back In The Arms Of Someone
TTITLE2=Glen Cambell-Country Boy(You Got Your Feet In L.A.)
TTITLE3=Dottie West/Kenny Rogers-Everytime Two Fools Collide
TTITLE4=Willie Nelson-Country Willie
TTITLE5=Mel Mcdaniel-Have A Dream On Me
TTITLE6=Anne Murray-He Thinks I Still Care
TTITLE7=Kenny Rogers-She Believes In Me
TTITLE8=Melba Montgomery-Angel Of The Morning
TTITLE9=Billie Jo Spears-Misty Blue
TTITLE10=Ed Bruce-Mamas Don't Let Your Babies Grow Up To Be Cowboys
TTITLE11=Jean Sheppard-Another Lonely Night
TTITLE12=Nitty Gritty Dirt Band-Mr Bojangles
TTITLE13=Billy Crash Craddock-I Cheated On A Good Woman's Love
TTITLE14=Sonny James-Just A Moment Of Time
TTITLE15=Jessi Colter-I'm Not Lisa
TTITLE16=Del Reeves-A Lover's Question
TTITLE17=Arlene Harden-I Could Almost Say Goodbye
TTITLE18=Johnny And Jonie Mosby-I'm Leaving It Up To You
TTITLE19=Stoney Edwards-Hank And Lefty Raised My Soul
EXTD=YEAR: 1989
EXTT0=
EXTT1=
EXTT2=
EXTT3=
EXTT4=
EXTT5=
EXTT6=
EXTT7=
EXTT8=
EXTT9=
EXTT10=
EXTT11=
EXTT12=
EXTT13=
EXTT14=
EXTT15=
EXTT16=
EXTT17=
EXTT18=
EXTT19=
PLAYORDER=
